<mxfile host="app.diagrams.net" modified="2023-08-29T13:42:02.104Z" agent="Mozilla/5.0 (Windows NT 10.0; Win64; x64) AppleWebKit/537.36 (KHTML, like Gecko) Chrome/116.0.0.0 Safari/537.36" version="21.6.9" etag="7LIK6j70aHkj-VylFFcG" type="github">
  <diagram name="Page-1" id="XbX64f33qSCvF57U9AME">
    <mxGraphModel>
      <root>
        <mxCell id="0" />
        <mxCell id="1" parent="0" />
      </root>
    </mxGraphModel>
  </diagram>
</mxfile>
